<?xml version="1.0" encoding="UTF-8" standalone="no"?>
<!-- Created with Inkscape (http://www.inkscape.org/) -->

<svg
   width="512"
   height="512"
   viewBox="0 0 135.46667 135.46667"
   version="1.1"
   id="svg5"
   xml:space="preserve"
   inkscape:version="1.2.2 (b0a8486541, 2022-12-01)"
   sodipodi:docname="penyagolosa_logo_favicon_green_512.svg"
   inkscape:export-filename="penyagolosa_logo_favicon.png"
   inkscape:export-xdpi="99.438606"
   inkscape:export-ydpi="99.438606"
   xmlns:inkscape="http://www.inkscape.org/namespaces/inkscape"
   xmlns:sodipodi="http://sodipodi.sourceforge.net/DTD/sodipodi-0.dtd"
   xmlns="http://www.w3.org/2000/svg"
   xmlns:svg="http://www.w3.org/2000/svg"><sodipodi:namedview
     id="namedview7"
     pagecolor="#ffffff"
     bordercolor="#000000"
     borderopacity="0.25"
     inkscape:showpageshadow="2"
     inkscape:pageopacity="0.0"
     inkscape:pagecheckerboard="0"
     inkscape:deskcolor="#d1d1d1"
     inkscape:document-units="mm"
     showgrid="false"
     inkscape:zoom="0.76791526"
     inkscape:cx="143.24497"
     inkscape:cy="78.133621"
     inkscape:window-width="1920"
     inkscape:window-height="1008"
     inkscape:window-x="1920"
     inkscape:window-y="0"
     inkscape:window-maximized="1"
     inkscape:current-layer="layer2" /><defs
     id="defs2" /><g
     inkscape:groupmode="layer"
     id="layer2"
     inkscape:label="Capa 2"
     style="display:inline"
     transform="matrix(1.05,0,0,1.05,-92.68623,-79.619753)"><ellipse
       style="fill:#7e7702;fill-opacity:1;stroke:#ffffff;stroke-width:0.270611;stroke-opacity:1"
       id="path232"
       cx="153.1496"
       cy="140.35431"
       inkscape:export-filename="path232.png"
       inkscape:export-xdpi="99.438606"
       inkscape:export-ydpi="99.438606"
       rx="63.733757"
       ry="64.705299" /><path
       style="display:inline;fill:#ffffff;fill-opacity:1;stroke-width:0.267232"
       id="path249"
       d="m 92.668386,148.20711 c 1.101295,-0.4037 2.259566,-0.5693 3.394912,-0.82638 0.737384,-0.11339 1.427232,-0.39124 2.118656,-0.66857 1.563192,-0.7167 3.154166,-1.36566 4.714646,-2.08841 1.1336,-0.55729 2.29316,-1.05384 3.37366,-1.71856 0.91925,-0.5633 1.64585,-1.37398 2.40005,-2.14269 0.84862,-0.74831 1.48466,-1.68612 2.09502,-2.64286 0.55549,-0.76194 1.01662,-1.5939 1.55802,-2.36466 0.78111,-1.19054 1.42274,-2.47048 2.16262,-3.6871 0.66275,-1.06583 1.22944,-2.18948 1.82448,-3.29625 0.33195,-0.53239 0.60959,-1.13307 1.05478,-1.58054 0.59594,-0.59902 1.34828,-1.04699 2.05059,-1.49111 1.447,-0.94216 3.13139,-1.37144 4.75923,-1.84638 1.17975,-0.3641 2.421,-0.56394 3.54649,-1.09208 1.06965,-0.52819 1.98841,-1.29884 2.95308,-1.99716 0.87846,-0.62282 1.77205,-1.23565 2.71202,-1.75445 1.13502,-0.459 2.37498,-0.11115 3.49794,0.2182 1.17667,0.3737 2.36143,0.72158 3.50665,1.19134 1.21834,0.57696 3.50542,1.96903 -1.75657,-1.12499 -0.17998,-0.10583 0.35626,0.21835 0.53305,0.32985 0.5231,0.3299 0.47385,0.30337 0.97465,0.6488 1.10755,0.78977 2.26532,1.49863 3.40212,2.24126 2.25853,1.40807 4.55852,2.75181 6.87867,4.04887 1.3235,0.91521 2.87432,0.47051 4.2575,-0.0503 0.90874,-0.34409 1.73133,-0.88177 2.61742,-1.28042 0.68942,-0.3963 1.35849,-0.82819 2.05777,-1.20805 0.87725,-0.49718 1.65104,0.11741 2.45471,0.52387 0.93955,0.47784 1.88923,0.9307 2.82373,1.41809 0.0946,0.0586 0.37933,0.23313 0.28384,0.17602 -1.01392,-0.60621 -4.07255,-2.39264 -3.03908,-1.82338 1.58756,0.87447 3.37245,2.25295 5.1959,2.88991 1.64968,0.26286 3.29622,-0.19956 4.90431,-0.54222 1.43418,-0.37459 2.83855,0.0747 4.15428,0.66615 1.06084,0.50154 3.00682,1.44286 -2.12246,-1.31567 -0.25826,-0.13888 0.47897,0.34314 0.71431,0.52073 0.62756,0.47355 1.22004,0.98786 1.81738,1.50104 1.05974,1.0356 2.13688,2.04253 3.29293,2.96147 2.60591,2.08886 5.54221,3.65525 8.40354,5.31758 1.91139,0.87829 3.9472,1.39078 5.98944,1.81136 2.23465,0.47448 4.39945,1.22411 6.58423,1.8915 1.36324,0.44363 2.70447,0.93777 3.98162,1.60201 0.5744,0.26313 1.14483,0.51599 1.76117,0.64934 0.74084,0.22731 1.46976,0.49581 2.21488,0.71093 0.76081,0.17009 1.45914,0.55056 2.17712,0.8561 1.41119,0.71545 4.39035,2.53248 -1.55425,-1.00157 1.59643,1.09879 3.25087,2.13877 4.98591,2.97821 0.5018,0.19823 0.98006,0.45539 1.47258,0.67811 0,0 -3.08304,-2.54657 -3.08304,-2.54657 v 0 c -0.48043,-0.23452 -0.97187,-0.44468 -1.45213,-0.67996 -1.22083,-0.66985 -2.94866,-1.74379 2.50201,1.54433 0.67903,0.40962 -1.4818,-0.81477 -0.776,-0.47817 -1.69679,-1.04121 -3.35868,-2.18074 -5.16578,-3.01493 -0.72055,-0.31633 -1.43835,-0.65018 -2.20653,-0.82224 -0.74444,-0.23396 -1.48,-0.50054 -2.23231,-0.70602 -0.58603,-0.17989 -1.14614,-0.44027 -1.69989,-0.70718 -1.26707,-0.62563 -2.61255,-1.04885 -3.94696,-1.48847 -2.19899,-0.67675 -4.38324,-1.41702 -6.63487,-1.88877 -2.01803,-0.44001 -4.0345,-0.94455 -5.90371,-1.87786 0.75718,0.47569 1.5214,0.9395 2.27159,1.42708 0.30477,0.19809 -0.62678,-0.36608 -0.93497,-0.55836 -1.09118,-0.68078 -2.15262,-1.41558 -3.1682,-2.21323 -1.16932,-0.88603 -2.25414,-1.87563 -3.27978,-2.93676 -2.17941,-1.83586 -4.35783,-3.69138 -7.05435,-4.70956 -1.38544,-0.54217 -2.81491,-0.89137 -4.28209,-0.46942 -1.56739,0.34585 -3.20807,0.78973 -4.79669,0.34132 -0.60707,-0.26405 -0.39065,-0.15414 -0.95616,-0.45999 -0.15261,-0.0826 -0.60428,-0.34186 -0.4563,-0.25063 6.27359,3.86846 1.21614,0.63606 -1.02091,-0.57887 -0.92769,-0.47696 -1.87418,-0.91434 -2.80313,-1.3889 -0.96493,-0.45433 -1.70153,-0.85339 -2.68852,-0.23536 -0.6867,0.38903 -1.35494,0.81333 -2.05165,1.18162 -0.85371,0.42424 -1.66409,0.94561 -2.55848,1.27557 -1.40209,0.4805 -2.78127,0.6939 -4.07426,-0.22421 -0.5636,-0.31854 -1.12392,-0.64321 -1.68724,-0.96224 -0.19217,-0.10885 -0.76538,-0.44132 -0.57805,-0.32365 0.66801,0.41963 4.08207,2.51435 2.02061,1.22984 -1.13139,-0.73652 -2.27579,-1.4521 -3.3879,-2.21946 -2.01566,-1.4599 -4.20087,-2.80643 -6.43835,-3.83226 -1.15341,-0.43925 -2.33429,-0.7961 -3.51576,-1.14371 -1.20995,-0.30365 -2.53337,-0.59347 -3.70413,0.008 -0.92752,0.56018 -1.82904,1.17089 -2.71006,1.80655 -0.93967,0.69302 -1.86205,1.41866 -2.91746,1.91787 -1.12916,0.45706 -2.32641,0.71277 -3.48467,1.07745 -1.65424,0.50268 -3.37001,0.93034 -4.82371,1.93474 -0.73136,0.48051 -1.5127,0.95961 -2.13755,1.59116 -0.46118,0.46615 -0.74844,1.08637 -1.08888,1.64239 -0.59246,1.10095 -1.18034,2.20393 -1.80835,3.28335 -0.7225,1.21702 -1.37305,2.48156 -2.17779,3.64466 -0.5422,0.77759 -1.00372,1.61581 -1.55801,2.38615 -0.59241,0.9377 -1.2244,1.83775 -2.04999,2.57247 -0.72857,0.75354 -1.45777,1.51468 -2.357,2.05138 -1.06757,0.64355 -2.1964,1.16099 -3.311556,1.70785 -1.560625,0.72578 -3.146928,1.39253 -4.738952,2.0398 -0.684374,0.25257 -1.372177,0.48734 -2.089124,0.61994 -1.150081,0.2569 -2.306873,0.48975 -3.429776,0.86194 0,0 3.243264,2.28422 3.243264,2.28422 z" /></g></svg>
