<?xml version="1.0" encoding="UTF-8" standalone="no"?>
<!-- Created with Inkscape (http://www.inkscape.org/) -->

<svg
   width="127.71699mm"
   height="30.831955mm"
   viewBox="0 0 127.71699 30.831955"
   version="1.1"
   id="svg5"
   xml:space="preserve"
   inkscape:version="1.2.2 (b0a8486541, 2022-12-01)"
   sodipodi:docname="penyagolosa_logo_black.svg"
   xmlns:inkscape="http://www.inkscape.org/namespaces/inkscape"
   xmlns:sodipodi="http://sodipodi.sourceforge.net/DTD/sodipodi-0.dtd"
   xmlns="http://www.w3.org/2000/svg"
   xmlns:svg="http://www.w3.org/2000/svg"><sodipodi:namedview
     id="namedview7"
     pagecolor="#ffffff"
     bordercolor="#000000"
     borderopacity="0.25"
     inkscape:showpageshadow="2"
     inkscape:pageopacity="0.0"
     inkscape:pagecheckerboard="0"
     inkscape:deskcolor="#d1d1d1"
     inkscape:document-units="mm"
     showgrid="false"
     inkscape:zoom="0.76791526"
     inkscape:cx="220.72748"
     inkscape:cy="-83.342529"
     inkscape:window-width="1920"
     inkscape:window-height="1008"
     inkscape:window-x="1920"
     inkscape:window-y="0"
     inkscape:window-maximized="1"
     inkscape:current-layer="layer2" /><defs
     id="defs2" /><g
     inkscape:groupmode="layer"
     id="layer2"
     inkscape:label="Capa 2"
     style="display:inline"
     transform="translate(-87.250979,-115.53598)"><path
       style="display:inline;fill:#7e7702;stroke-width:0.264583;fill-opacity:1"
       id="path249"
       d="m 90.527341,146.36784 c 1.112533,-0.39174 2.282624,-0.55243 3.429556,-0.80189 0.74491,-0.11004 1.441794,-0.37965 2.140275,-0.64876 1.579142,-0.69547 3.186357,-1.3252 4.762758,-2.02654 1.14516,-0.54077 2.31656,-1.02261 3.40808,-1.66764 0.92863,-0.54661 1.66266,-1.33326 2.42455,-2.0792 0.85728,-0.72614 1.49981,-1.63616 2.1164,-2.56455 0.56116,-0.73937 1.02699,-1.54668 1.57391,-2.2946 0.78909,-1.15527 1.43727,-2.39727 2.18469,-3.57785 0.66952,-1.03425 1.242,-2.1246 1.84311,-3.19859 0.33534,-0.51661 0.61581,-1.09949 1.06554,-1.5337 0.60203,-0.58127 1.36203,-1.01597 2.07153,-1.44693 1.46175,-0.91424 3.16332,-1.33081 4.80779,-1.79167 1.19179,-0.35332 2.44571,-0.54723 3.58268,-1.05972 1.08055,-0.51254 2.00869,-1.26036 2.98322,-1.938 0.88741,-0.60436 1.79013,-1.19903 2.73969,-1.70246 1.14661,-0.4454 2.39922,-0.10786 3.53363,0.21174 1.18869,0.36263 2.38554,0.70019 3.54245,1.15604 1.23077,0.55986 3.54119,1.91068 -1.7745,-1.09166 -0.18182,-0.10269 0.35989,0.21188 0.53849,0.32008 0.52843,0.32012 0.47868,0.29438 0.98458,0.62957 1.11887,0.76637 2.28845,1.45423 3.43684,2.17486 2.28159,1.36634 4.60506,2.67027 6.94887,3.9289 1.33701,0.88809 2.90366,0.45657 4.30096,-0.0488 0.91801,-0.33389 1.749,-0.85564 2.64412,-1.24248 0.69646,-0.38456 1.37236,-0.80365 2.07877,-1.17226 0.88621,-0.48244 1.66789,0.11393 2.47976,0.50835 0.94914,0.46368 1.90851,0.90313 2.85255,1.37607 0.0956,0.0569 0.3832,0.22622 0.28673,0.17081 -1.02425,-0.58825 -4.1141,-2.32175 -3.07008,-1.76935 1.60375,0.84855 3.40685,2.18619 5.24892,2.80427 1.66652,0.25508 3.32985,-0.19364 4.95436,-0.52615 1.44881,-0.36348 2.86751,0.0725 4.19667,0.64642 1.07166,0.48667 3.03751,1.4001 -2.14412,-1.27669 -0.26089,-0.13477 0.48385,0.33297 0.7216,0.5053 0.63395,0.45952 1.23249,0.95859 1.83593,1.45657 1.07055,1.00491 2.15868,1.982 3.32653,2.87372 2.6325,2.02697 5.59877,3.54694 8.4893,5.16002 1.93089,0.85226 3.98747,1.34957 6.05056,1.75769 2.25745,0.46042 4.44434,1.18784 6.65142,1.83545 1.37715,0.43049 2.73207,0.90999 4.02225,1.55455 0.58026,0.25533 1.15651,0.5007 1.77914,0.6301 0.7484,0.22057 1.48476,0.48111 2.23749,0.68987 0.76857,0.16504 1.47403,0.53424 2.19934,0.83073 1.42559,0.69425 4.43516,2.45745 -1.57012,-0.97189 1.61273,1.06623 3.28405,2.07539 5.03681,2.88996 0.50692,0.19235 0.99004,0.4419 1.4876,0.65802 0,0 -3.1145,-2.47111 -3.1145,-2.47111 v 0 c -0.48533,-0.22758 -0.98179,-0.43151 -1.46696,-0.65982 -1.23328,-0.65001 -2.97875,-1.69212 2.52754,1.49857 0.68596,0.39749 -1.49691,-0.79063 -0.78392,-0.464 -1.71409,-1.01036 -3.39295,-2.11612 -5.21848,-2.9256 -0.72792,-0.30696 -1.45304,-0.63092 -2.22906,-0.79788 -0.75203,-0.22702 -1.49509,-0.48571 -2.25509,-0.68509 -0.592,-0.17457 -1.15784,-0.42724 -1.71723,-0.68624 -1.28001,-0.60708 -2.63921,-1.01777 -3.98725,-1.44436 -2.22143,-0.6567 -4.42795,-1.37504 -6.70257,-1.83281 -2.03862,-0.42697 -4.07568,-0.91656 -5.96396,-1.82222 0.76492,0.4616 1.53692,0.91167 2.29477,1.3848 0.30789,0.19222 -0.63317,-0.35524 -0.94451,-0.54182 -1.10233,-0.6606 -2.17458,-1.37364 -3.20053,-2.14765 -1.18125,-0.85978 -2.27715,-1.82006 -3.31325,-2.84974 -2.20166,-1.78147 -4.4023,-3.58202 -7.12634,-4.57003 -1.39958,-0.5261 -2.84363,-0.86495 -4.32578,-0.4555 -1.5834,0.3356 -3.24081,0.76633 -4.84564,0.3312 -0.61328,-0.25622 -0.39465,-0.14957 -0.96593,-0.44636 -0.15417,-0.0801 -0.61044,-0.33173 -0.46096,-0.2432 6.33762,3.75383 1.22856,0.61721 -1.03131,-0.56172 -0.93717,-0.46283 -1.89332,-0.88725 -2.83174,-1.34775 -0.97478,-0.44087 -1.71889,-0.8281 -2.71596,-0.22839 -0.69371,0.3775 -1.36877,0.78924 -2.07259,1.14661 -0.86242,0.41167 -1.68106,0.91759 -2.58459,1.23778 -1.4164,0.46627 -2.80965,0.67334 -4.11584,-0.21757 -0.56935,-0.3091 -1.13539,-0.62415 -1.70446,-0.93373 -0.19414,-0.10562 -0.77319,-0.42824 -0.58395,-0.31405 0.67483,0.40718 4.12373,2.43984 2.04123,1.19339 -1.14292,-0.71469 -2.299,-1.40907 -3.42247,-2.1537 -2.03624,-1.41664 -4.24374,-2.72327 -6.50405,-3.71871 -1.16517,-0.42624 -2.35812,-0.77251 -3.55164,-1.10982 -1.22229,-0.29465 -2.55923,-0.57588 -3.74193,0.008 -0.93698,0.54358 -1.84771,1.13619 -2.73771,1.75302 -0.94927,0.67248 -1.88106,1.37663 -2.94724,1.86105 -1.14067,0.44351 -2.35015,0.69165 -3.52023,1.04552 -1.67113,0.48778 -3.40439,0.90278 -4.87294,1.87742 -0.73883,0.46627 -1.52814,0.93117 -2.15936,1.54401 -0.46589,0.45234 -0.75607,1.05419 -1.09999,1.59373 -0.5985,1.06833 -1.19239,2.13862 -1.8268,3.18607 -0.72988,1.18095 -1.38707,2.40803 -2.20002,3.53666 -0.54773,0.75455 -1.01397,1.56794 -1.5739,2.31545 -0.59846,0.90992 -1.2369,1.7833 -2.07092,2.49625 -0.73601,0.73122 -1.47264,1.4698 -2.38105,1.9906 -1.078471,0.62448 -2.218811,1.12659 -3.345348,1.65724 -1.576551,0.70428 -3.179043,1.35127 -4.787312,1.97936 -0.691359,0.2451 -1.386181,0.47291 -2.110444,0.60158 -1.161817,0.24929 -2.330415,0.47524 -3.464777,0.8364 0,0 3.276362,2.21654 3.276362,2.21654 z" /></g></svg>
